<svg xmlns="http://www.w3.org/2000/svg" style="display: none;"><symbol id="apple" viewBox="0 0 512.003 512.003"><title>apple</title><g> <g> <path d="M351.98,0c-27.296,1.888-59.2,19.36-77.792,42.112c-16.96,20.64-30.912,51.296-25.472,81.088 c29.824,0.928,60.64-16.96,78.496-40.096C343.916,61.568,356.556,31.104,351.98,0z"/> </g> </g><g> <g> <path d="M459.852,171.776c-26.208-32.864-63.04-51.936-97.824-51.936c-45.92,0-65.344,21.984-97.248,21.984 c-32.896,0-57.888-21.92-97.6-21.92c-39.008,0-80.544,23.84-106.88,64.608c-37.024,57.408-30.688,165.344,29.312,257.28 c21.472,32.896,50.144,69.888,87.648,70.208c33.376,0.32,42.784-21.408,88-21.632c45.216-0.256,53.792,21.92,87.104,21.568 c37.536-0.288,67.776-41.28,89.248-74.176c15.392-23.584,21.12-35.456,33.056-62.08 C387.852,342.624,373.932,219.168,459.852,171.776z"/> </g> </g></symbol><symbol id="laptop" viewBox="0 0 97.385 97.385"><title>laptop</title><path d="M97.265,71.261c-0.093-0.108-0.23-0.172-0.374-0.172H0.494c-0.144,0-0.28,0.063-0.374,0.172 c-0.094,0.108-0.136,0.253-0.115,0.396c0.014,0.09,1.468,9.016,12.753,9.016h71.869c11.284,0,12.738-8.926,12.753-9.016 C97.4,71.514,97.358,71.369,97.265,71.261z M55.942,77.547h-14.5v-3.334h14.5V77.547z"/><path d="M10.507,67.619h76.37c1.104,0,2-0.896,2-2V18.713c0-1.104-0.896-2-2-2h-76.37c-1.104,0-2,0.896-2,2v46.906 C8.507,66.723,9.403,67.619,10.507,67.619z M15.507,23.713h66.37v36.906h-66.37V23.713z"/></symbol><symbol id="android-logo" viewBox="0 0 553.048 553.048"><title>android-logo</title><path d="M76.774,179.141c-9.529,0-17.614,3.323-24.26,9.969c-6.646,6.646-9.97,14.621-9.97,23.929v142.914 c0,9.541,3.323,17.619,9.97,24.266c6.646,6.646,14.731,9.97,24.26,9.97c9.522,0,17.558-3.323,24.101-9.97 c6.53-6.646,9.804-14.725,9.804-24.266V213.039c0-9.309-3.323-17.283-9.97-23.929C94.062,182.464,86.082,179.141,76.774,179.141z"/><path d="M351.972,50.847L375.57,7.315c1.549-2.882,0.998-5.092-1.658-6.646c-2.883-1.34-5.098-0.661-6.646,1.989l-23.928,43.88 c-21.055-9.309-43.324-13.972-66.807-13.972c-23.488,0-45.759,4.664-66.806,13.972l-23.929-43.88 c-1.555-2.65-3.77-3.323-6.646-1.989c-2.662,1.561-3.213,3.764-1.658,6.646l23.599,43.532 c-23.929,12.203-42.987,29.198-57.167,51.022c-14.18,21.836-21.273,45.698-21.273,71.628h307.426 c0-25.924-7.094-49.787-21.273-71.628C394.623,80.045,375.675,63.05,351.972,50.847z M215.539,114.165 c-2.552,2.558-5.6,3.831-9.143,3.831c-3.55,0-6.536-1.273-8.972-3.831c-2.436-2.546-3.654-5.582-3.654-9.137 c0-3.543,1.218-6.585,3.654-9.137c2.436-2.546,5.429-3.819,8.972-3.819s6.591,1.273,9.143,3.819 c2.546,2.558,3.825,5.594,3.825,9.137C219.357,108.577,218.079,111.619,215.539,114.165z M355.625,114.165 c-2.441,2.558-5.434,3.831-8.971,3.831c-3.551,0-6.598-1.273-9.145-3.831c-2.551-2.546-3.824-5.582-3.824-9.137 c0-3.543,1.273-6.585,3.824-9.137c2.547-2.546,5.594-3.819,9.145-3.819c3.543,0,6.529,1.273,8.971,3.819 c2.438,2.558,3.654,5.594,3.654,9.137C359.279,108.577,358.062,111.619,355.625,114.165z"/><path d="M123.971,406.804c0,10.202,3.543,18.838,10.63,25.925c7.093,7.087,15.729,10.63,25.924,10.63h24.596l0.337,75.454 c0,9.528,3.323,17.619,9.969,24.266s14.627,9.97,23.929,9.97c9.523,0,17.613-3.323,24.26-9.97s9.97-14.737,9.97-24.266v-75.447 h45.864v75.447c0,9.528,3.322,17.619,9.969,24.266s14.73,9.97,24.26,9.97c9.523,0,17.613-3.323,24.26-9.97 s9.969-14.737,9.969-24.266v-75.447h24.928c9.969,0,18.494-3.544,25.594-10.631c7.086-7.087,10.631-15.723,10.631-25.924V185.45 H123.971V406.804z"/><path d="M476.275,179.141c-9.309,0-17.283,3.274-23.93,9.804c-6.646,6.542-9.969,14.578-9.969,24.094v142.914 c0,9.541,3.322,17.619,9.969,24.266s14.627,9.97,23.93,9.97c9.523,0,17.613-3.323,24.26-9.97s9.969-14.725,9.969-24.266V213.039 c0-9.517-3.322-17.552-9.969-24.094C493.888,182.415,485.798,179.141,476.275,179.141z"/></symbol><symbol id="windows" viewBox="0 0 512 512"><title>windows</title><g> <g> <polygon points="0,80 0,240 224,240 224,52 "/> </g> </g><g> <g> <polygon points="256,48 256,240 512,240 512,16 "/> </g> </g><g> <g> <polygon points="256,272 256,464 512,496 512,272 "/> </g> </g><g> <g> <polygon points="0,272 0,432 224,460 224,272 "/> </g> </g></symbol><symbol id="ubuntu-logo" viewBox="0 0 493.423 493.423"><title>ubuntu-logo</title><g> <g> <path d="M168.839,241.198c0-38.117,17.894-72.05,45.685-93.896L171.988,79.22c-35.648,25.603-62.472,62.66-75.127,105.796 c19.811,12.751,32.949,35.031,32.949,60.353c0,24.424-12.143,45.957-30.783,58.918c13.606,40.86,40.12,75.838,74.706,100.113 l39.559-70.358C186.187,312.204,168.839,278.724,168.839,241.198z"/> </g> </g><g> <path d="M109.704,245.368c0,28.484-23.132,51.592-51.609,51.592c-28.491,0-51.606-23.107-51.606-51.592 c0-28.47,23.115-51.577,51.606-51.577C86.572,193.791,109.704,216.898,109.704,245.368z"/> </g><g> <g> <path d="M399.494,370.126c12.002,0,23.301,2.936,33.23,8.149c30.924-32.591,50.906-75.595,54.211-123.228l-80.148-1.551 c-6.171,60.111-56.954,106.941-118.677,106.941c-17.084,0-33.388-3.594-48.101-10.093l-39.841,69.704 c26.56,13.069,56.376,20.411,87.941,20.411c13.622,0,26.981-1.379,39.854-4.006C330.709,399.381,361.68,370.126,399.494,370.126z "/> </g> </g><g> <path d="M451.071,441.847c0,28.478-23.084,51.576-51.577,51.576c-28.493,0-51.594-23.098-51.594-51.576 c0-28.5,23.101-51.592,51.594-51.592C427.987,390.255,451.071,413.347,451.071,441.847z"/> </g><g> <g> <path d="M438.211,110.152c-11.677,8.269-25.968,13.163-41.399,13.163c-39.637,0-71.73-32.102-71.73-71.715 c0-2.104,0.094-4.139,0.25-6.181c-12.05-2.307-24.503-3.491-37.222-3.491c-31.859,0-61.988,7.498-88.689,20.777l39.607,69.75 c14.979-6.748,31.593-10.544,49.082-10.544c61.177,0,111.601,46.074,118.491,105.414l80.147-2.447 C483.209,181.12,465.487,141.372,438.211,110.152z"/> </g> </g><g> <path d="M448.374,51.601c0,28.492-23.038,51.592-51.561,51.592c-28.491,0-51.592-23.1-51.592-51.592 C345.22,23.107,368.321,0,396.812,0C425.335,0,448.374,23.107,448.374,51.601z"/> </g></symbol><symbol id="check" viewBox="0 -46 417.81333 417"><title>check</title><path d="m159.988281 318.582031c-3.988281 4.011719-9.429687 6.25-15.082031 6.25s-11.09375-2.238281-15.082031-6.25l-120.449219-120.46875c-12.5-12.5-12.5-32.769531 0-45.246093l15.082031-15.085938c12.503907-12.5 32.75-12.5 45.25 0l75.199219 75.203125 203.199219-203.203125c12.503906-12.5 32.769531-12.5 45.25 0l15.082031 15.085938c12.5 12.5 12.5 32.765624 0 45.246093zm0 0"/></symbol><symbol id="profile-user" viewBox="0 0 45.532 45.532"><title>profile-user</title><path d="M22.766,0.001C10.194,0.001,0,10.193,0,22.766s10.193,22.765,22.766,22.765c12.574,0,22.766-10.192,22.766-22.765 S35.34,0.001,22.766,0.001z M22.766,6.808c4.16,0,7.531,3.372,7.531,7.53c0,4.159-3.371,7.53-7.531,7.53 c-4.158,0-7.529-3.371-7.529-7.53C15.237,10.18,18.608,6.808,22.766,6.808z M22.761,39.579c-4.149,0-7.949-1.511-10.88-4.012 c-0.714-0.609-1.126-1.502-1.126-2.439c0-4.217,3.413-7.592,7.631-7.592h8.762c4.219,0,7.619,3.375,7.619,7.592 c0,0.938-0.41,1.829-1.125,2.438C30.712,38.068,26.911,39.579,22.761,39.579z"/></symbol><symbol id="filter" viewBox="0 0 512 512"><title>filter</title><path d="m90.5 0h-30v362h-30v90h30v60h30v-60h30v-90h-30zm0 422h-30v-30h30z"/><path d="m481.5 362h-30v-362h-30v362h-30v90h30v60h30v-60h30zm-30 60h-30v-30h30z"/><path d="m331.5 0h-30v222h-30v90h30v200h30v-200h30v-90h-30zm0 282h-30v-30h30z"/><path d="m210.5 0h-30v53.652h-30v90h30v368.348h30v-368.348h30v-90h-30zm0 113.652h-30v-30h30z"/></symbol><symbol id="filter-1" viewBox="0 0 511 511.99982"><title>filter-1</title><path d="m492.476562 0h-471.976562c-11.046875 0-20 8.953125-20 20 0 55.695312 23.875 108.867188 65.503906 145.871094l87.589844 77.851562c15.1875 13.5 23.898438 32.898438 23.898438 53.222656v195.03125c0 15.9375 17.8125 25.492188 31.089843 16.636719l117.996094-78.660156c5.5625-3.710937 8.90625-9.953125 8.90625-16.640625v-116.367188c0-20.324218 8.710937-39.722656 23.898437-53.222656l87.585938-77.851562c41.628906-37.003906 65.503906-90.175782 65.503906-145.871094 0-11.046875-8.953125-20-19.996094-20zm-72.082031 135.972656-87.585937 77.855469c-23.71875 21.085937-37.324219 51.378906-37.324219 83.113281v105.667969l-77.996094 51.996094v-157.660157c0-31.738281-13.605469-62.03125-37.324219-83.117187l-87.585937-77.851563c-28.070313-24.957031-45.988281-59.152343-50.785156-95.980468h429.386719c-4.796876 36.828125-22.710938 71.023437-50.785157 95.976562zm0 0"/></symbol><symbol id="arrow-down-sign-to-navigate" viewBox="0 0 451.847 451.847"><title>arrow-down-sign-to-navigate</title><path d="M225.923,354.706c-8.098,0-16.195-3.092-22.369-9.263L9.27,151.157c-12.359-12.359-12.359-32.397,0-44.751 c12.354-12.354,32.388-12.354,44.748,0l171.905,171.915l171.906-171.909c12.359-12.354,32.391-12.354,44.744,0 c12.365,12.354,12.365,32.392,0,44.751L248.292,345.449C242.115,351.621,234.018,354.706,225.923,354.706z"/></symbol><symbol id="edit" viewBox="0 0 512 511"><title>edit</title><path d="m405.332031 256.484375c-11.796875 0-21.332031 9.558594-21.332031 21.332031v170.667969c0 11.753906-9.558594 21.332031-21.332031 21.332031h-298.667969c-11.777344 0-21.332031-9.578125-21.332031-21.332031v-298.667969c0-11.753906 9.554687-21.332031 21.332031-21.332031h170.667969c11.796875 0 21.332031-9.558594 21.332031-21.332031 0-11.777344-9.535156-21.335938-21.332031-21.335938h-170.667969c-35.285156 0-64 28.714844-64 64v298.667969c0 35.285156 28.714844 64 64 64h298.667969c35.285156 0 64-28.714844 64-64v-170.667969c0-11.796875-9.539063-21.332031-21.335938-21.332031zm0 0"/><path d="m200.019531 237.050781c-1.492187 1.492188-2.496093 3.390625-2.921875 5.4375l-15.082031 75.4375c-.703125 3.496094.40625 7.101563 2.921875 9.640625 2.027344 2.027344 4.757812 3.113282 7.554688 3.113282.679687 0 1.386718-.0625 2.089843-.210938l75.414063-15.082031c2.089844-.429688 3.988281-1.429688 5.460937-2.925781l168.789063-168.789063-75.414063-75.410156zm0 0"/><path d="m496.382812 16.101562c-20.796874-20.800781-54.632812-20.800781-75.414062 0l-29.523438 29.523438 75.414063 75.414062 29.523437-29.527343c10.070313-10.046875 15.617188-23.445313 15.617188-37.695313s-5.546875-27.648437-15.617188-37.714844zm0 0"/></symbol><symbol id="delete" viewBox="0 0 384 384"><title>delete</title><path d="M64,341.333C64,364.907,83.093,384,106.667,384h170.667C300.907,384,320,364.907,320,341.333v-256H64V341.333z"/><polygon points="266.667,21.333 245.333,0 138.667,0 117.333,21.333 42.667,21.333 42.667,64 341.333,64 341.333,21.333 "/></symbol><symbol id="trash" viewBox="0 0 512 512"><title>trash</title><path d="m424 64h-88v-16c0-26.51-21.49-48-48-48h-64c-26.51 0-48 21.49-48 48v16h-88c-22.091 0-40 17.909-40 40v32c0 8.837 7.163 16 16 16h384c8.837 0 16-7.163 16-16v-32c0-22.091-17.909-40-40-40zm-216-16c0-8.82 7.18-16 16-16h64c8.82 0 16 7.18 16 16v16h-96z"/><path d="m78.364 184c-2.855 0-5.13 2.386-4.994 5.238l13.2 277.042c1.22 25.64 22.28 45.72 47.94 45.72h242.98c25.66 0 46.72-20.08 47.94-45.72l13.2-277.042c.136-2.852-2.139-5.238-4.994-5.238zm241.636 40c0-8.84 7.16-16 16-16s16 7.16 16 16v208c0 8.84-7.16 16-16 16s-16-7.16-16-16zm-80 0c0-8.84 7.16-16 16-16s16 7.16 16 16v208c0 8.84-7.16 16-16 16s-16-7.16-16-16zm-80 0c0-8.84 7.16-16 16-16s16 7.16 16 16v208c0 8.84-7.16 16-16 16s-16-7.16-16-16z"/></symbol><symbol id="eye" viewBox="0 0 488.85 488.85"><title>eye</title><path d="M244.425,98.725c-93.4,0-178.1,51.1-240.6,134.1c-5.1,6.8-5.1,16.3,0,23.1c62.5,83.1,147.2,134.2,240.6,134.2 s178.1-51.1,240.6-134.1c5.1-6.8,5.1-16.3,0-23.1C422.525,149.825,337.825,98.725,244.425,98.725z M251.125,347.025 c-62,3.9-113.2-47.2-109.3-109.3c3.2-51.2,44.7-92.7,95.9-95.9c62-3.9,113.2,47.2,109.3,109.3 C343.725,302.225,302.225,343.725,251.125,347.025z M248.025,299.625c-33.4,2.1-61-25.4-58.8-58.8c1.7-27.6,24.1-49.9,51.7-51.7 c33.4-2.1,61,25.4,58.8,58.8C297.925,275.625,275.525,297.925,248.025,299.625z"/></symbol><symbol id="symbols" viewBox="0 0 56.48 56.48"><title>symbols</title><g> <g> <path d="M55.026,9.939H1.454C0.65,9.939,0,10.59,0,11.393v33.695c0,0.803,0.65,1.454,1.454,1.454h53.572 c0.804,0,1.454-0.651,1.454-1.454V11.393C56.48,10.59,55.83,9.939,55.026,9.939z M4.373,21h6.028 c0.813,0.031,1.468,0.29,1.694,1.159l1.311,6.305c-1.288-3.298-4.392-6.042-9.083-7.178L4.373,21z M11.667,35.38L8.185,23.484 c2.503,1.602,4.635,4.144,5.386,5.913l0.406,1.469l3.808-9.729h4.12l-6.123,14.24L11.667,35.38z M24.933,35.39h-3.888 l2.431-14.268h3.89L24.933,35.39z M31.699,35.604c-1.743-0.018-3.422-0.363-4.332-0.762l0.547-3.193l0.501,0.227 c1.277,0.533,2.104,0.749,3.661,0.749c1.117,0,2.314-0.437,2.325-1.393c0.007-0.625-0.501-1.071-2.015-1.771 c-1.476-0.682-3.43-1.826-3.406-3.875c0.021-2.773,2.729-4.708,6.572-4.708c1.506,0,2.713,0.31,3.483,0.599L38.51,24.57 l-0.351-0.165c-0.716-0.288-1.637-0.566-2.91-0.546c-1.522,0-2.228,0.634-2.228,1.227c-0.008,0.668,0.824,1.108,2.184,1.77 c2.243,1.018,3.28,2.253,3.266,3.876C38.441,33.692,35.788,35.604,31.699,35.604z M48.549,35.396c0,0-0.355-1.64-0.473-2.138 c-0.566,0-4.534-0.006-4.98-0.006c-0.151,0.385-0.817,2.144-0.817,2.144h-4.083l5.773-13.075c0.41-0.929,1.105-1.184,2.037-1.184 h3.004l3.147,14.258L48.549,35.396z"/> </g> </g><g> <g> <path d="M46.542,26.215l-0.262-1.23c-0.198,0.537-0.539,1.4-0.517,1.362c0,0-1.229,3.167-1.549,3.988h3.229 C47.287,29.62,46.542,26.215,46.542,26.215z"/> </g> </g></symbol><symbol id="mastercard" viewBox="0 0 291.791 291.791"><title>mastercard</title><path style="fill:#E2574C;" d="M182.298,145.895c0,50.366-40.801,91.176-91.149,91.176S0,196.252,0,145.895 s40.811-91.176,91.149-91.176S182.298,95.538,182.298,145.895z"/><path style="fill:#F4B459;" d="M200.616,54.719c-20.442,0-39.261,6.811-54.469,18.181l0.073,0.009 c2.991,2.89,6.291,4.924,8.835,8.251l-18.965,0.301c-2.972,3-5.68,6.264-8.233,9.656H161.3c2.544,3.054,4.896,5.708,7.03,9.081 h-46.536c-1.705,2.936-3.282,5.954-4.659,9.09h56.493c1.477,3.127,2.799,5.489,3.921,8.799h-63.76 c-1.012,3.146-1.878,6.364-2.535,9.646h68.966c0.675,3.155,1.194,6.072,1.55,9.045h-71.884c-0.301,3-0.456,6.045-0.456,9.118 h72.859c0,3.228-0.228,6.218-0.556,9.118h-71.847c0.31,3.091,0.766,6.127,1.368,9.118h68.856c-0.711,2.954-1.532,5.926-2.562,9.008 h-63.969c0.966,3.118,2.143,6.145,3.428,9.099h56.621c-1.568,3.319-3.346,5.972-5.306,9.081h-46.691 c1.842,3.191,3.875,6.236,6.081,9.154l33.589,0.501c-2.863,3.437-6.537,5.507-9.884,8.516c0.182,0.146-5.352-0.018-16.248-0.191 c16.576,17.105,39.744,27.772,65.446,27.772c50.357,0,91.176-40.82,91.176-91.176S250.981,54.719,200.616,54.719z"/></symbol><symbol id="mastercard-1" viewBox="0 0 504 504"><title>mastercard-1</title><path style="fill:#FFB600;" d="M504,252c0,83.2-67.2,151.2-151.2,151.2c-83.2,0-151.2-68-151.2-151.2l0,0 c0-83.2,67.2-151.2,150.4-151.2C436.8,100.8,504,168.8,504,252L504,252z"/><path style="fill:#F7981D;" d="M352.8,100.8c83.2,0,151.2,68,151.2,151.2l0,0c0,83.2-67.2,151.2-151.2,151.2 c-83.2,0-151.2-68-151.2-151.2"/><path style="fill:#FF8500;" d="M352.8,100.8c83.2,0,151.2,68,151.2,151.2l0,0c0,83.2-67.2,151.2-151.2,151.2"/><path style="fill:#FF5050;" d="M149.6,100.8C67.2,101.6,0,168.8,0,252s67.2,151.2,151.2,151.2c39.2,0,74.4-15.2,101.6-39.2l0,0l0,0 c5.6-4.8,10.4-10.4,15.2-16h-31.2c-4-4.8-8-10.4-11.2-15.2h53.6c3.2-4.8,6.4-10.4,8.8-16h-71.2c-2.4-4.8-4.8-10.4-6.4-16h83.2 c4.8-15.2,8-31.2,8-48c0-11.2-1.6-21.6-3.2-32h-92.8c0.8-5.6,2.4-10.4,4-16h83.2c-1.6-5.6-4-11.2-6.4-16H216 c2.4-5.6,5.6-10.4,8.8-16h53.6c-3.2-5.6-7.2-11.2-12-16h-29.6c4.8-5.6,9.6-10.4,15.2-15.2c-26.4-24.8-62.4-39.2-101.6-39.2 C150.4,100.8,150.4,100.8,149.6,100.8z"/><path style="fill:#E52836;" d="M0,252c0,83.2,67.2,151.2,151.2,151.2c39.2,0,74.4-15.2,101.6-39.2l0,0l0,0 c5.6-4.8,10.4-10.4,15.2-16h-31.2c-4-4.8-8-10.4-11.2-15.2h53.6c3.2-4.8,6.4-10.4,8.8-16h-71.2c-2.4-4.8-4.8-10.4-6.4-16h83.2 c4.8-15.2,8-31.2,8-48c0-11.2-1.6-21.6-3.2-32h-92.8c0.8-5.6,2.4-10.4,4-16h83.2c-1.6-5.6-4-11.2-6.4-16H216 c2.4-5.6,5.6-10.4,8.8-16h53.6c-3.2-5.6-7.2-11.2-12-16h-29.6c4.8-5.6,9.6-10.4,15.2-15.2c-26.4-24.8-62.4-39.2-101.6-39.2h-0.8"/><path style="fill:#CB2026;" d="M151.2,403.2c39.2,0,74.4-15.2,101.6-39.2l0,0l0,0c5.6-4.8,10.4-10.4,15.2-16h-31.2 c-4-4.8-8-10.4-11.2-15.2h53.6c3.2-4.8,6.4-10.4,8.8-16h-71.2c-2.4-4.8-4.8-10.4-6.4-16h83.2c4.8-15.2,8-31.2,8-48 c0-11.2-1.6-21.6-3.2-32h-92.8c0.8-5.6,2.4-10.4,4-16h83.2c-1.6-5.6-4-11.2-6.4-16H216c2.4-5.6,5.6-10.4,8.8-16h53.6 c-3.2-5.6-7.2-11.2-12-16h-29.6c4.8-5.6,9.6-10.4,15.2-15.2c-26.4-24.8-62.4-39.2-101.6-39.2h-0.8"/><g> <path style="fill:#FFFFFF;" d="M204.8,290.4l2.4-13.6c-0.8,0-2.4,0.8-4,0.8c-5.6,0-6.4-3.2-5.6-4.8l4.8-28h8.8l2.4-15.2h-8l1.6-9.6 h-16c0,0-9.6,52.8-9.6,59.2c0,9.6,5.6,13.6,12.8,13.6C199.2,292.8,203.2,291.2,204.8,290.4z"/> <path style="fill:#FFFFFF;" d="M210.4,264.8c0,22.4,15.2,28,28,28c12,0,16.8-2.4,16.8-2.4l3.2-15.2c0,0-8.8,4-16.8,4 c-17.6,0-14.4-12.8-14.4-12.8H260c0,0,2.4-10.4,2.4-14.4c0-10.4-5.6-23.2-23.2-23.2C222.4,227.2,210.4,244.8,210.4,264.8z M238.4,241.6c8.8,0,7.2,10.4,7.2,11.2H228C228,252,229.6,241.6,238.4,241.6z"/> <path style="fill:#FFFFFF;" d="M340,290.4l3.2-17.6c0,0-8,4-13.6,4c-11.2,0-16-8.8-16-18.4c0-19.2,9.6-29.6,20.8-29.6 c8,0,14.4,4.8,14.4,4.8l2.4-16.8c0,0-9.6-4-18.4-4c-18.4,0-36.8,16-36.8,46.4c0,20,9.6,33.6,28.8,33.6 C331.2,292.8,340,290.4,340,290.4z"/> <path style="fill:#FFFFFF;" d="M116.8,227.2c-11.2,0-19.2,3.2-19.2,3.2L95.2,244c0,0,7.2-3.2,17.6-3.2c5.6,0,10.4,0.8,10.4,5.6 c0,3.2-0.8,4-0.8,4s-4.8,0-7.2,0c-13.6,0-28.8,5.6-28.8,24c0,14.4,9.6,17.6,15.2,17.6c11.2,0,16-7.2,16.8-7.2l-0.8,6.4H132l6.4-44 C138.4,228,122.4,227.2,116.8,227.2z M120,263.2c0,2.4-1.6,15.2-11.2,15.2c-4.8,0-6.4-4-6.4-6.4c0-4,2.4-9.6,14.4-9.6 C119.2,263.2,120,263.2,120,263.2z"/> <path style="fill:#FFFFFF;" d="M153.6,292c4,0,24,0.8,24-20.8c0-20-19.2-16-19.2-24c0-4,3.2-5.6,8.8-5.6c2.4,0,11.2,0.8,11.2,0.8 l2.4-14.4c0,0-5.6-1.6-15.2-1.6c-12,0-24,4.8-24,20.8c0,18.4,20,16.8,20,24c0,4.8-5.6,5.6-9.6,5.6c-7.2,0-14.4-2.4-14.4-2.4 l-2.4,14.4C136,290.4,140,292,153.6,292z"/> <path style="fill:#FFFFFF;" d="M472.8,214.4l-3.2,21.6c0,0-6.4-8-15.2-8c-14.4,0-27.2,17.6-27.2,38.4c0,12.8,6.4,26.4,20,26.4 c9.6,0,15.2-6.4,15.2-6.4l-0.8,5.6h16l12-76.8L472.8,214.4z M465.6,256.8c0,8.8-4,20-12.8,20c-5.6,0-8.8-4.8-8.8-12.8 c0-12.8,5.6-20.8,12.8-20.8C462.4,243.2,465.6,247.2,465.6,256.8z"/> <path style="fill:#FFFFFF;" d="M29.6,291.2l9.6-57.6l1.6,57.6H52l20.8-57.6L64,291.2h16.8l12.8-76.8H67.2l-16,47.2l-0.8-47.2H27.2 l-12.8,76.8H29.6z"/> <path style="fill:#FFFFFF;" d="M277.6,291.2c4.8-26.4,5.6-48,16.8-44c1.6-10.4,4-14.4,5.6-18.4c0,0-0.8,0-3.2,0 c-7.2,0-12.8,9.6-12.8,9.6l1.6-8.8h-15.2L260,292h17.6V291.2z"/> <path style="fill:#FFFFFF;" d="M376.8,227.2c-11.2,0-19.2,3.2-19.2,3.2l-2.4,13.6c0,0,7.2-3.2,17.6-3.2c5.6,0,10.4,0.8,10.4,5.6 c0,3.2-0.8,4-0.8,4s-4.8,0-7.2,0c-13.6,0-28.8,5.6-28.8,24c0,14.4,9.6,17.6,15.2,17.6c11.2,0,16-7.2,16.8-7.2l-0.8,6.4H392l6.4-44 C399.2,228,382.4,227.2,376.8,227.2z M380.8,263.2c0,2.4-1.6,15.2-11.2,15.2c-4.8,0-6.4-4-6.4-6.4c0-4,2.4-9.6,14.4-9.6 C380,263.2,380,263.2,380.8,263.2z"/> <path style="fill:#FFFFFF;" d="M412,291.2c4.8-26.4,5.6-48,16.8-44c1.6-10.4,4-14.4,5.6-18.4c0,0-0.8,0-3.2,0 c-7.2,0-12.8,9.6-12.8,9.6l1.6-8.8h-15.2L394.4,292H412V291.2z"/> </g><g> <path style="fill:#DCE5E5;" d="M180,279.2c0,9.6,5.6,13.6,12.8,13.6c5.6,0,10.4-1.6,12-2.4l2.4-13.6c-0.8,0-2.4,0.8-4,0.8 c-5.6,0-6.4-3.2-5.6-4.8l4.8-28h8.8l2.4-15.2h-8l1.6-9.6"/> <path style="fill:#DCE5E5;" d="M218.4,264.8c0,22.4,7.2,28,20,28c12,0,16.8-2.4,16.8-2.4l3.2-15.2c0,0-8.8,4-16.8,4 c-17.6,0-14.4-12.8-14.4-12.8H260c0,0,2.4-10.4,2.4-14.4c0-10.4-5.6-23.2-23.2-23.2C222.4,227.2,218.4,244.8,218.4,264.8z M238.4,241.6c8.8,0,10.4,10.4,10.4,11.2H228C228,252,229.6,241.6,238.4,241.6z"/> <path style="fill:#DCE5E5;" d="M340,290.4l3.2-17.6c0,0-8,4-13.6,4c-11.2,0-16-8.8-16-18.4c0-19.2,9.6-29.6,20.8-29.6 c8,0,14.4,4.8,14.4,4.8l2.4-16.8c0,0-9.6-4-18.4-4c-18.4,0-28.8,16-28.8,46.4c0,20,1.6,33.6,20.8,33.6 C331.2,292.8,340,290.4,340,290.4z"/> <path style="fill:#DCE5E5;" d="M95.2,244.8c0,0,7.2-3.2,17.6-3.2c5.6,0,10.4,0.8,10.4,5.6c0,3.2-0.8,4-0.8,4s-4.8,0-7.2,0 c-13.6,0-28.8,5.6-28.8,24c0,14.4,9.6,17.6,15.2,17.6c11.2,0,16-7.2,16.8-7.2l-0.8,6.4H132l6.4-44c0-18.4-16-19.2-22.4-19.2 M128,263.2c0,2.4-9.6,15.2-19.2,15.2c-4.8,0-6.4-4-6.4-6.4c0-4,2.4-9.6,14.4-9.6C119.2,263.2,128,263.2,128,263.2z"/> <path style="fill:#DCE5E5;" d="M136,290.4c0,0,4.8,1.6,18.4,1.6c4,0,24,0.8,24-20.8c0-20-19.2-16-19.2-24c0-4,3.2-5.6,8.8-5.6 c2.4,0,11.2,0.8,11.2,0.8l2.4-14.4c0,0-5.6-1.6-15.2-1.6c-12,0-16,4.8-16,20.8c0,18.4,12,16.8,12,24c0,4.8-5.6,5.6-9.6,5.6"/> <path style="fill:#DCE5E5;" d="M469.6,236c0,0-6.4-8-15.2-8c-14.4,0-19.2,17.6-19.2,38.4c0,12.8-1.6,26.4,12,26.4 c9.6,0,15.2-6.4,15.2-6.4l-0.8,5.6h16l12-76.8 M468.8,256.8c0,8.8-7.2,20-16,20c-5.6,0-8.8-4.8-8.8-12.8c0-12.8,5.6-20.8,12.8-20.8 C462.4,243.2,468.8,247.2,468.8,256.8z"/> <path style="fill:#DCE5E5;" d="M29.6,291.2l9.6-57.6l1.6,57.6H52l20.8-57.6L64,291.2h16.8l12.8-76.8h-20l-22.4,47.2l-0.8-47.2h-8.8 l-27.2,76.8H29.6z"/> <path style="fill:#DCE5E5;" d="M260.8,291.2h16.8c4.8-26.4,5.6-48,16.8-44c1.6-10.4,4-14.4,5.6-18.4c0,0-0.8,0-3.2,0 c-7.2,0-12.8,9.6-12.8,9.6l1.6-8.8"/> <path style="fill:#DCE5E5;" d="M355.2,244.8c0,0,7.2-3.2,17.6-3.2c5.6,0,10.4,0.8,10.4,5.6c0,3.2-0.8,4-0.8,4s-4.8,0-7.2,0 c-13.6,0-28.8,5.6-28.8,24c0,14.4,9.6,17.6,15.2,17.6c11.2,0,16-7.2,16.8-7.2l-0.8,6.4H392l6.4-44c0-18.4-16-19.2-22.4-19.2 M388,263.2c0,2.4-9.6,15.2-19.2,15.2c-4.8,0-6.4-4-6.4-6.4c0-4,2.4-9.6,14.4-9.6C380,263.2,388,263.2,388,263.2z"/> <path style="fill:#DCE5E5;" d="M395.2,291.2H412c4.8-26.4,5.6-48,16.8-44c1.6-10.4,4-14.4,5.6-18.4c0,0-0.8,0-3.2,0 c-7.2,0-12.8,9.6-12.8,9.6l1.6-8.8"/> </g></symbol><symbol id="paypal" viewBox="0 0 504 504"><title>paypal</title><path style="fill:#139AD6;" d="M389.6,221.2h-27.2c-1.6,0-3.2,1.6-4,3.2l-11.2,70.4c0,1.6,0.8,2.4,2.4,2.4H364 c1.6,0,2.4-0.8,2.4-2.4l3.2-20c0-1.6,1.6-3.2,4-3.2h8.8c18.4,0,28.8-8.8,31.2-26.4c1.6-7.2,0-13.6-3.2-17.6 C405.6,223.6,398.4,221.2,389.6,221.2 M392.8,247.6c-1.6,9.6-8.8,9.6-16,9.6H372l3.2-18.4c0-0.8,0.8-1.6,2.4-1.6h1.6 c4.8,0,9.6,0,12,3.2C392.8,241.2,392.8,243.6,392.8,247.6"/><g> <path style="fill:#263B80;" d="M193.6,221.2h-27.2c-1.6,0-3.2,1.6-4,3.2l-11.2,70.4c0,1.6,0.8,2.4,2.4,2.4h12.8 c1.6,0,3.2-1.6,4-3.2l3.2-19.2c0-1.6,1.6-3.2,4-3.2h8.8c18.4,0,28.8-8.8,31.2-26.4c1.6-7.2,0-13.6-3.2-17.6 C209.6,223.6,203.2,221.2,193.6,221.2 M196.8,247.6c-1.6,9.6-8.8,9.6-16,9.6h-4l3.2-18.4c0-0.8,0.8-1.6,2.4-1.6h1.6 c4.8,0,9.6,0,12,3.2C196.8,241.2,197.6,243.6,196.8,247.6"/> <path style="fill:#263B80;" d="M276,246.8h-12.8c-0.8,0-2.4,0.8-2.4,1.6l-0.8,4l-0.8-1.6c-3.2-4-8.8-5.6-15.2-5.6 c-14.4,0-27.2,11.2-29.6,26.4c-1.6,8,0.8,15.2,4.8,20s9.6,6.4,16.8,6.4c12,0,18.4-7.2,18.4-7.2l-0.8,4c0,1.6,0.8,2.4,2.4,2.4h12 c1.6,0,3.2-1.6,4-3.2l7.2-44.8C278.4,248.4,276.8,246.8,276,246.8 M257.6,272.4c-1.6,7.2-7.2,12.8-15.2,12.8c-4,0-7.2-1.6-8.8-3.2 c-1.6-2.4-2.4-5.6-2.4-9.6c0.8-7.2,7.2-12.8,14.4-12.8c4,0,6.4,1.6,8.8,3.2C256.8,265.2,257.6,269.2,257.6,272.4"/> </g><path style="fill:#139AD6;" d="M471.2,246.8h-12.8c-0.8,0-2.4,0.8-2.4,1.6l-0.8,4l-0.8-1.6c-3.2-4-8.8-5.6-15.2-5.6 c-14.4,0-27.2,11.2-29.6,26.4c-1.6,8,0.8,15.2,4.8,20s9.6,6.4,16.8,6.4c12,0,18.4-7.2,18.4-7.2l-0.8,4c0,1.6,0.8,2.4,2.4,2.4h12 c1.6,0,3.2-1.6,4-3.2l7.2-44.8C473.6,248.4,472.8,246.8,471.2,246.8 M452.8,272.4c-1.6,7.2-7.2,12.8-15.2,12.8c-4,0-7.2-1.6-8.8-3.2 c-1.6-2.4-2.4-5.6-2.4-9.6c0.8-7.2,7.2-12.8,14.4-12.8c4,0,6.4,1.6,8.8,3.2C452.8,265.2,453.6,269.2,452.8,272.4"/><path style="fill:#263B80;" d="M345.6,246.8H332c-1.6,0-2.4,0.8-3.2,1.6l-17.6,27.2l-8-25.6c-0.8-1.6-1.6-2.4-4-2.4h-12.8 c-1.6,0-2.4,1.6-2.4,3.2l14.4,42.4l-13.6,19.2c-0.8,1.6,0,4,1.6,4h12.8c1.6,0,2.4-0.8,3.2-1.6l44-63.2 C348.8,249.2,347.2,246.8,345.6,246.8"/><path style="fill:#139AD6;" d="M486.4,223.6l-11.2,72c0,1.6,0.8,2.4,2.4,2.4h11.2c1.6,0,3.2-1.6,4-3.2l11.2-70.4 c0-1.6-0.8-2.4-2.4-2.4h-12.8C488,221.2,487.2,222,486.4,223.6"/><path style="fill:#263B80;" d="M92,197.2c-5.6-6.4-16-9.6-30.4-9.6h-40c-2.4,0-4.8,2.4-5.6,4.8L0,297.2c0,2.4,1.6,4,3.2,4H28 l6.4-39.2v1.6c0.8-2.4,3.2-4.8,5.6-4.8h12c23.2,0,40.8-9.6,46.4-36c0-0.8,0-1.6,0-2.4c-0.8,0-0.8,0,0,0 C99.2,210,97.6,203.6,92,197.2"/><path style="fill:#139AD6;" d="M97.6,220.4L97.6,220.4c0,0.8,0,1.6,0,2.4c-5.6,27.2-23.2,36-46.4,36h-12c-2.4,0-4.8,2.4-5.6,4.8 l-8,48.8c0,1.6,0.8,3.2,3.2,3.2h20.8c2.4,0,4.8-1.6,4.8-4v-0.8l4-24.8v-1.6c0-2.4,2.4-4,4.8-4h3.2c20,0,36-8,40-32 c1.6-9.6,0.8-18.4-4-24C101.6,222.8,100,221.2,97.6,220.4"/><path style="fill:#232C65;" d="M92,218c-0.8,0-1.6-0.8-2.4-0.8s-1.6,0-2.4-0.8c-3.2-0.8-6.4-0.8-10.4-0.8H45.6c-0.8,0-1.6,0-2.4,0.8 c-1.6,0.8-2.4,2.4-2.4,4L34.4,262v1.6c0.8-2.4,3.2-4.8,5.6-4.8h12c23.2,0,40.8-9.6,46.4-36c0-0.8,0-1.6,0.8-2.4 c-1.6-0.8-2.4-1.6-4-1.6C92.8,218,92.8,218,92,218"/></symbol><symbol id="credit-card" viewBox="0 0 512 512"><title>credit-card</title><path d="m456 80h-400c-30.878 0-56 25.122-56 56v240c0 30.878 25.122 56 56 56h400c30.878 0 56-25.122 56-56v-240c0-30.878-25.122-56-56-56zm-400 32h400c13.233 0 24 10.767 24 24v32h-448v-32c0-13.233 10.767-24 24-24zm400 288h-400c-13.233 0-24-10.767-24-24v-176h448v176c0 13.233-10.767 24-24 24z"/><path d="m112 352h-16c-8.836 0-16-7.164-16-16v-16c0-8.836 7.164-16 16-16h16c8.836 0 16 7.164 16 16v16c0 8.836-7.164 16-16 16z"/></symbol><symbol id="heart" viewBox="0 -28 512.001 512"><title>heart</title><path d="m256 455.515625c-7.289062 0-14.316406-2.640625-19.792969-7.4375-20.683593-18.085937-40.625-35.082031-58.21875-50.074219l-.089843-.078125c-51.582032-43.957031-96.125-81.917969-127.117188-119.3125-34.644531-41.804687-50.78125-81.441406-50.78125-124.742187 0-42.070313 14.425781-80.882813 40.617188-109.292969 26.503906-28.746094 62.871093-44.578125 102.414062-44.578125 29.554688 0 56.621094 9.34375 80.445312 27.769531 12.023438 9.300781 22.921876 20.683594 32.523438 33.960938 9.605469-13.277344 20.5-24.660157 32.527344-33.960938 23.824218-18.425781 50.890625-27.769531 80.445312-27.769531 39.539063 0 75.910156 15.832031 102.414063 44.578125 26.191406 28.410156 40.613281 67.222656 40.613281 109.292969 0 43.300781-16.132812 82.9375-50.777344 124.738281-30.992187 37.398437-75.53125 75.355469-127.105468 119.308594-17.625 15.015625-37.597657 32.039062-58.328126 50.167969-5.472656 4.789062-12.503906 7.429687-19.789062 7.429687zm-112.96875-425.523437c-31.066406 0-59.605469 12.398437-80.367188 34.914062-21.070312 22.855469-32.675781 54.449219-32.675781 88.964844 0 36.417968 13.535157 68.988281 43.882813 105.605468 29.332031 35.394532 72.960937 72.574219 123.476562 115.625l.09375.078126c17.660156 15.050781 37.679688 32.113281 58.515625 50.332031 20.960938-18.253907 41.011719-35.34375 58.707031-50.417969 50.511719-43.050781 94.136719-80.222656 123.46875-115.617188 30.34375-36.617187 43.878907-69.1875 43.878907-105.605468 0-34.515625-11.605469-66.109375-32.675781-88.964844-20.757813-22.515625-49.300782-34.914062-80.363282-34.914062-22.757812 0-43.652344 7.234374-62.101562 21.5-16.441406 12.71875-27.894532 28.796874-34.609375 40.046874-3.453125 5.785157-9.53125 9.238282-16.261719 9.238282s-12.808594-3.453125-16.261719-9.238282c-6.710937-11.25-18.164062-27.328124-34.609375-40.046874-18.449218-14.265626-39.34375-21.5-62.097656-21.5zm0 0"/></symbol><symbol id="facebook" viewBox="0 0 24 24"><title>facebook</title><path d="m15.997 3.985h2.191v-3.816c-.378-.052-1.678-.169-3.192-.169-3.159 0-5.323 1.987-5.323 5.639v3.361h-3.486v4.266h3.486v10.734h4.274v-10.733h3.345l.531-4.266h-3.877v-2.939c.001-1.233.333-2.077 2.051-2.077z"/></symbol><symbol id="facebook-1" viewBox="0 0 112.196 112.196"><title>facebook-1</title><circle style="fill:#3B5998;" cx="56.098" cy="56.098" r="56.098"/><path style="fill:#FFFFFF;" d="M70.201,58.294h-10.01v36.672H45.025V58.294h-7.213V45.406h7.213v-8.34 c0-5.964,2.833-15.303,15.301-15.303L71.56,21.81v12.51h-8.151c-1.337,0-3.217,0.668-3.217,3.513v7.585h11.334L70.201,58.294z"/></symbol><symbol id="twitter" viewBox="0 0 512 512.00038"><title>twitter</title><linearGradient id="a" gradientUnits="userSpaceOnUse" x1="169.9940010834" x2="299.4934135904" y1="71.98622701" y2="349.0548448864"><stop offset="0" stop-color="#00c3ff"/><stop offset="1" stop-color="#00b0ed"/></linearGradient><linearGradient id="b"><stop offset="0" stop-color="#00b0ed" stop-opacity="0"/><stop offset="1" stop-color="#00a2ce"/></linearGradient><linearGradient id="c" gradientUnits="userSpaceOnUse" x1="364.2825237824" x2="-379.5864327114" xlink:href="#b" y1="314.0868361356" y2="-84.9521808166"/><linearGradient id="d" gradientUnits="userSpaceOnUse" x1="256.0003" x2="256.0003" xlink:href="#b" y1="437.383215389" y2="504.4720097064"/><linearGradient id="e" gradientUnits="userSpaceOnUse" x1="489.4209995136" x2="239.2937328214" xlink:href="#b" y1="482.0724016502" y2="231.945134958"/><path d="m420.421875 503.234375c-109.503906 11.6875-219.339844 11.6875-328.84375 0-43.664063-4.660156-78.152344-39.148437-82.8125-82.816406-11.6875-109.503907-11.6875-219.335938 0-328.839844 4.660156-43.664063 39.148437-78.152344 82.8125-82.8125 109.503906-11.6875 219.335937-11.6875 328.839844 0 43.667969 4.660156 78.15625 39.148437 82.816406 82.8125 11.6875 109.503906 11.6875 219.335937 0 328.839844-4.660156 43.667969-39.144531 78.15625-82.8125 82.816406zm0 0" fill="url(#a)"/><path d="m475.386719 110.097656c-4.132813-38.746094-34.734375-69.351562-73.484375-73.488281-97.171875-10.367187-194.632813-10.367187-291.804688 0-38.746094 4.136719-69.351562 34.742187-73.488281 73.488281-10.367187 97.171875-10.367187 194.632813 0 291.800782 4.136719 38.75 34.742187 69.355468 73.488281 73.488281 97.171875 10.371093 194.632813 10.371093 291.800782 0 38.75-4.132813 69.355468-34.738281 73.488281-73.488281 10.371093-97.167969 10.371093-194.628907 0-291.800782zm0 0" fill="url(#c)"/><path d="m7.671875 409.804688c.351563 3.539062.714844 7.078124 1.09375 10.617187 4.660156 43.664063 39.148437 78.152344 82.816406 82.8125 109.503907 11.6875 219.335938 11.6875 328.839844 0 43.667969-4.660156 78.152344-39.148437 82.8125-82.8125.378906-3.539063.742187-7.078125 1.097656-10.617187zm0 0" fill="url(#d)"/><path d="m511.890625 238.007812-106.277344-106.273437c-11.910156 6.808594-22.40625 10.585937-30.3125 12.679687-4.445312 1.191407-8.074219 1.839844-10.683593 2.195313-11.984376-12.285156-28.71875-19.914063-47.242188-19.914063-36.445312 0-65.996094 29.546876-65.996094 66 0 1.316407.035156 2.617188.121094 3.914063.175781 3.160156.578125 6.265625 1.199219 9.285156-15.214844-.226562-64.667969-4.289062-111.832031-44.71875-.003907 0-.003907-.003906-.003907-.003906h-.003906l-22.242187-22.246094s-26.09375 45.542969 12.269531 80.101563c1.683593 1.878906 3.535156 3.734375 5.5625 5.558594.160156.179687.328125.355468.488281.535156-5.035156-.339844-20.179688-1.847656-28.945312-8.039063 0 0-1.761719 27.835938 21.429687 48.328125l18.726563 18.886719c-5.703126.472656-12.011719.359375-16.398438-1.5625 0 0 3.882812 16.488281 18.890625 29.683594l26.234375 26.371093c-15.738281 9.167969-43.289062 20.640626-79.554688 17.710938l159.144532 155.5c54.679687-.015625 109.359375-2.9375 163.957031-8.765625 43.667969-4.660156 78.15625-39.148437 82.816406-82.8125 6.480469-60.742187 9.359375-121.585937 8.652344-182.414063zm0 0" fill="url(#e)"/><path d="m414.683594 157.367188c-11.328125 5.925781-28.390625 8.664062-34.046875 9.453124-.046875-.273437-.09375-.535156-.140625-.796874 19.230468-11.894532 25.117187-34.289063 25.117187-34.289063-11.910156 6.808594-22.40625 10.585937-30.3125 12.679687-4.445312 1.191407-8.074219 1.835938-10.683593 2.195313-11.984376-12.289063-28.71875-19.914063-47.242188-19.914063-36.445312 0-65.996094 29.542969-65.996094 66 0 1.3125.035156 2.617188.121094 3.910157.175781 3.160156.578125 6.265625 1.199219 9.285156-17.640625-.261719-81.316407-5.671875-134.082031-66.964844 0 0-29.382813 51.265625 20.015624 86.285157 0 0-20.015624-.625-30.640624-8.128907 0 0-3.125 49.398438 53.769531 65.023438 0 0-20.003907 5.007812-30.015625.628906 0 0 10.007812 42.515625 60.027344 45.648437 0 0-35.875 32.84375-94.457032 28.117188 28.8125 18.242188 62.972656 28.800781 99.597656 28.800781 102.980469 0 186.464844-83.480469 186.464844-186.460937 0-1.285156-.011718-2.570313-.039062-3.855469.027344-.761719.039062-1.519531.039062-2.289063 0-.535156-.011718-1.070312-.019531-1.605468 19.039063-12.6875 31.324219-33.722656 31.324219-33.722656zm0 0" fill="#fff"/></symbol><symbol id="twitter-1" viewBox="0 0 512 512"><title>twitter-1</title><path style="fill:#03A9F4;" d="M512,97.248c-19.04,8.352-39.328,13.888-60.48,16.576c21.76-12.992,38.368-33.408,46.176-58.016 c-20.288,12.096-42.688,20.64-66.56,25.408C411.872,60.704,384.416,48,354.464,48c-58.112,0-104.896,47.168-104.896,104.992 c0,8.32,0.704,16.32,2.432,23.936c-87.264-4.256-164.48-46.08-216.352-109.792c-9.056,15.712-14.368,33.696-14.368,53.056 c0,36.352,18.72,68.576,46.624,87.232c-16.864-0.32-33.408-5.216-47.424-12.928c0,0.32,0,0.736,0,1.152 c0,51.008,36.384,93.376,84.096,103.136c-8.544,2.336-17.856,3.456-27.52,3.456c-6.72,0-13.504-0.384-19.872-1.792 c13.6,41.568,52.192,72.128,98.08,73.12c-35.712,27.936-81.056,44.768-130.144,44.768c-8.608,0-16.864-0.384-25.12-1.44 C46.496,446.88,101.6,464,161.024,464c193.152,0,298.752-160,298.752-298.688c0-4.64-0.16-9.12-0.384-13.568 C480.224,136.96,497.728,118.496,512,97.248z"/></symbol><symbol id="linkedin" viewBox="0 0 112.196 112.196"><title>linkedin</title><circle style="fill:#007AB9;" cx="56.098" cy="56.097" r="56.098"/><g> <path style="fill:#F1F2F2;" d="M89.616,60.611v23.128H76.207V62.161c0-5.418-1.936-9.118-6.791-9.118 c-3.705,0-5.906,2.491-6.878,4.903c-0.353,0.862-0.444,2.059-0.444,3.268v22.524H48.684c0,0,0.18-36.546,0-40.329h13.411v5.715 c-0.027,0.045-0.065,0.089-0.089,0.132h0.089v-0.132c1.782-2.742,4.96-6.662,12.085-6.662 C83.002,42.462,89.616,48.226,89.616,60.611L89.616,60.611z M34.656,23.969c-4.587,0-7.588,3.011-7.588,6.967 c0,3.872,2.914,6.97,7.412,6.97h0.087c4.677,0,7.585-3.098,7.585-6.97C42.063,26.98,39.244,23.969,34.656,23.969L34.656,23.969z M27.865,83.739H41.27V43.409H27.865V83.739z"/> </g></symbol><symbol id="linkedin-1" viewBox="0 0 512 512"><title>linkedin-1</title><g transform="translate(1)"> <g> <g> <path d="M68.12,4.267c-18.773,0-35.84,6.827-48.64,19.627C5.827,37.547-1,54.613-1,72.533c0,18.773,7.68,35.84,20.48,48.64 c12.8,12.8,30.72,20.48,47.787,19.627c0,0,0.853,0,1.707,0c17.067,0,33.28-6.827,46.08-19.627 c12.8-12.8,20.48-29.867,20.48-48.64c0.853-17.92-6.827-34.987-19.627-47.787C103.107,11.093,86.04,4.267,68.12,4.267z M103.107,109.227c-9.387,9.387-22.187,15.36-35.84,14.507c-12.8,0-26.453-5.12-35.84-14.507 c-10.24-9.387-15.36-23.04-15.36-36.693s5.12-26.453,15.36-36.693c9.387-9.387,22.187-14.507,36.693-14.507 c12.8,0,25.6,5.12,34.987,14.507c10.24,10.24,15.36,23.04,15.36,36.693S113.347,99.84,103.107,109.227z"/> <path d="M101.4,157.867H32.28c-13.653,0-24.747,11.093-24.747,25.6v298.667c0,13.653,11.947,25.6,25.6,25.6H101.4 c13.653,0,25.6-11.947,25.6-24.747v-299.52C127,169.813,115.053,157.867,101.4,157.867z M109.933,482.987 c0,4.267-4.267,7.68-8.533,7.68H33.133c-4.267,0-8.533-4.267-8.533-8.533V183.467c0-4.267,3.413-8.533,7.68-8.533h69.12 c4.267,0,8.533,4.267,8.533,8.533V482.987z"/> <path d="M391.533,149.333h-17.92c-33.28,0-64.853,14.507-85.333,37.547v-11.947c0-8.533-8.533-17.067-17.067-17.067H185.88 c-7.68,0-17.067,6.827-17.067,16.213v318.293c0,9.387,9.387,15.36,17.067,15.36h93.867c7.68,0,17.067-5.973,17.067-15.36v-184.32 c0-28.16,20.48-50.347,46.933-50.347c13.653,0,26.453,5.12,35.84,14.507c8.533,7.68,11.947,19.627,11.947,34.987v183.467 c0,8.533,8.533,17.067,17.067,17.067h85.333c8.533,0,17.067-8.533,17.067-17.067v-220.16 C511,202.24,458.947,149.333,391.533,149.333z M493.933,489.813l-0.853,0.853h-83.627L408.6,307.2 c0-20.48-5.12-35.84-16.213-46.933c-12.8-12.8-29.867-19.627-47.787-19.627c-35.84,0.853-64,29.867-64,67.413v182.613h-93.867 V174.933h84.48l0.853,0.853v53.76l23.04-23.04l0.853-0.853c17.067-23.893,46.933-39.253,78.507-39.253h17.92 c57.173,0,101.547,46.08,101.547,104.107V489.813z"/> </g> </g> </g></symbol><symbol id="linkedin-2" viewBox="0 0 382 382"><title>linkedin-2</title><path style="fill:#0077B7;" d="M347.445,0H34.555C15.471,0,0,15.471,0,34.555v312.889C0,366.529,15.471,382,34.555,382h312.889 C366.529,382,382,366.529,382,347.444V34.555C382,15.471,366.529,0,347.445,0z M118.207,329.844c0,5.554-4.502,10.056-10.056,10.056 H65.345c-5.554,0-10.056-4.502-10.056-10.056V150.403c0-5.554,4.502-10.056,10.056-10.056h42.806 c5.554,0,10.056,4.502,10.056,10.056V329.844z M86.748,123.432c-22.459,0-40.666-18.207-40.666-40.666S64.289,42.1,86.748,42.1 s40.666,18.207,40.666,40.666S109.208,123.432,86.748,123.432z M341.91,330.654c0,5.106-4.14,9.246-9.246,9.246H286.73 c-5.106,0-9.246-4.14-9.246-9.246v-84.168c0-12.556,3.683-55.021-32.813-55.021c-28.309,0-34.051,29.066-35.204,42.11v97.079 c0,5.106-4.139,9.246-9.246,9.246h-44.426c-5.106,0-9.246-4.14-9.246-9.246V149.593c0-5.106,4.14-9.246,9.246-9.246h44.426 c5.106,0,9.246,4.14,9.246,9.246v15.655c10.497-15.753,26.097-27.912,59.312-27.912c73.552,0,73.131,68.716,73.131,106.472 L341.91,330.654L341.91,330.654z"/></symbol><symbol id="message" viewBox="0 -45 512 511"><title>message</title><path d="m407 .5h-302c-57.898438 0-105 47.101562-105 105v162.171875c0 46.199219 30.332031 86.4375 74.285156 99.316406l50.710938 50.714844c2.816406 2.8125 6.628906 4.394531 10.609375 4.394531 3.976562 0 7.792969-1.582031 10.605469-4.394531l46.519531-46.523437h214.269531c57.898438 0 105-47.101563 105-105v-160.679688c0-57.898438-47.101562-105-105-105zm75 265.679688c0 41.355468-33.644531 75-75 75h-220.480469c-3.976562 0-7.792969 1.582031-10.605469 4.394531l-40.308593 40.308593-42.929688-42.929687c-1.925781-1.925781-4.339843-3.292969-6.984375-3.949219-32.789062-8.160156-55.691406-37.492187-55.691406-71.332031v-162.171875c0-41.355469 33.644531-75 75-75h302c41.355469 0 75 33.644531 75 75zm0 0"/><path d="m351.242188 144.328125h-190.484376c-8.285156 0-15 6.71875-15 15 0 8.285156 6.714844 15 15 15h190.484376c8.285156 0 15-6.714844 15-15 0-8.28125-6.714844-15-15-15zm0 0"/><path d="m351.242188 197.351562h-190.484376c-8.285156 0-15 6.714844-15 15 0 8.285157 6.714844 15 15 15h190.484376c8.285156 0 15-6.714843 15-15 0-8.285156-6.714844-15-15-15zm0 0"/></symbol><symbol id="placeholder" viewBox="0 0 512 512"><title>placeholder</title><g> <g> <path d="M256,0C156.748,0,76,80.748,76,180c0,33.534,9.289,66.26,26.869,94.652l142.885,230.257 c2.737,4.411,7.559,7.091,12.745,7.091c0.04,0,0.079,0,0.119,0c5.231-0.041,10.063-2.804,12.75-7.292L410.611,272.22 C427.221,244.428,436,212.539,436,180C436,80.748,355.252,0,256,0z M384.866,256.818L258.272,468.186l-129.905-209.34 C113.734,235.214,105.8,207.95,105.8,180c0-82.71,67.49-150.2,150.2-150.2S406.1,97.29,406.1,180 C406.1,207.121,398.689,233.688,384.866,256.818z"/> </g> </g><g> <g> <path d="M256,90c-49.626,0-90,40.374-90,90c0,49.309,39.717,90,90,90c50.903,0,90-41.233,90-90C346,130.374,305.626,90,256,90z M256,240.2c-33.257,0-60.2-27.033-60.2-60.2c0-33.084,27.116-60.2,60.2-60.2s60.1,27.116,60.1,60.2 C316.1,212.683,289.784,240.2,256,240.2z"/> </g> </g></symbol><symbol id="phone-call" viewBox="0 0 513.64 513.64"><title>phone-call</title><path d="M499.66,376.96l-71.68-71.68c-25.6-25.6-69.12-15.359-79.36,17.92c-7.68,23.041-33.28,35.841-56.32,30.72 c-51.2-12.8-120.32-79.36-133.12-133.12c-7.68-23.041,7.68-48.641,30.72-56.32c33.28-10.24,43.52-53.76,17.92-79.36l-71.68-71.68 c-20.48-17.92-51.2-17.92-69.12,0l-48.64,48.64c-48.64,51.2,5.12,186.88,125.44,307.2c120.32,120.32,256,176.641,307.2,125.44 l48.64-48.64C517.581,425.6,517.581,394.88,499.66,376.96z"/></symbol><symbol id="phone-call-1" viewBox="0 0 473.806 473.806"><title>phone-call-1</title><path d="M374.456,293.506c-9.7-10.1-21.4-15.5-33.8-15.5c-12.3,0-24.1,5.3-34.2,15.4l-31.6,31.5c-2.6-1.4-5.2-2.7-7.7-4 c-3.6-1.8-7-3.5-9.9-5.3c-29.6-18.8-56.5-43.3-82.3-75c-12.5-15.8-20.9-29.1-27-42.6c8.2-7.5,15.8-15.3,23.2-22.8 c2.8-2.8,5.6-5.7,8.4-8.5c21-21,21-48.2,0-69.2l-27.3-27.3c-3.1-3.1-6.3-6.3-9.3-9.5c-6-6.2-12.3-12.6-18.8-18.6 c-9.7-9.6-21.3-14.7-33.5-14.7s-24,5.1-34,14.7c-0.1,0.1-0.1,0.1-0.2,0.2l-34,34.3c-12.8,12.8-20.1,28.4-21.7,46.5 c-2.4,29.2,6.2,56.4,12.8,74.2c16.2,43.7,40.4,84.2,76.5,127.6c43.8,52.3,96.5,93.6,156.7,122.7c23,10.9,53.7,23.8,88,26 c2.1,0.1,4.3,0.2,6.3,0.2c23.1,0,42.5-8.3,57.7-24.8c0.1-0.2,0.3-0.3,0.4-0.5c5.2-6.3,11.2-12,17.5-18.1c4.3-4.1,8.7-8.4,13-12.9 c9.9-10.3,15.1-22.3,15.1-34.6c0-12.4-5.3-24.3-15.4-34.3L374.456,293.506z M410.256,398.806 C410.156,398.806,410.156,398.906,410.256,398.806c-3.9,4.2-7.9,8-12.2,12.2c-6.5,6.2-13.1,12.7-19.3,20 c-10.1,10.8-22,15.9-37.6,15.9c-1.5,0-3.1,0-4.6-0.1c-29.7-1.9-57.3-13.5-78-23.4c-56.6-27.4-106.3-66.3-147.6-115.6 c-34.1-41.1-56.9-79.1-72-119.9c-9.3-24.9-12.7-44.3-11.2-62.6c1-11.7,5.5-21.4,13.8-29.7l34.1-34.1c4.9-4.6,10.1-7.1,15.2-7.1 c6.3,0,11.4,3.8,14.6,7c0.1,0.1,0.2,0.2,0.3,0.3c6.1,5.7,11.9,11.6,18,17.9c3.1,3.2,6.3,6.4,9.5,9.7l27.3,27.3 c10.6,10.6,10.6,20.4,0,31c-2.9,2.9-5.7,5.8-8.6,8.6c-8.4,8.6-16.4,16.6-25.1,24.4c-0.2,0.2-0.4,0.3-0.5,0.5 c-8.6,8.6-7,17-5.2,22.7c0.1,0.3,0.2,0.6,0.3,0.9c7.1,17.2,17.1,33.4,32.3,52.7l0.1,0.1c27.6,34,56.7,60.5,88.8,80.8 c4.1,2.6,8.3,4.7,12.3,6.7c3.6,1.8,7,3.5,9.9,5.3c0.4,0.2,0.8,0.5,1.2,0.7c3.4,1.7,6.6,2.5,9.9,2.5c8.3,0,13.5-5.2,15.2-6.9 l34.2-34.2c3.4-3.4,8.8-7.5,15.1-7.5c6.2,0,11.3,3.9,14.4,7.3c0.1,0.1,0.1,0.1,0.2,0.2l55.1,55.1 C420.456,377.706,420.456,388.206,410.256,398.806z"/><path d="M256.056,112.706c26.2,4.4,50,16.8,69,35.8s31.3,42.8,35.8,69c1.1,6.6,6.8,11.2,13.3,11.2c0.8,0,1.5-0.1,2.3-0.2 c7.4-1.2,12.3-8.2,11.1-15.6c-5.4-31.7-20.4-60.6-43.3-83.5s-51.8-37.9-83.5-43.3c-7.4-1.2-14.3,3.7-15.6,11 S248.656,111.506,256.056,112.706z"/><path d="M473.256,209.006c-8.9-52.2-33.5-99.7-71.3-137.5s-85.3-62.4-137.5-71.3c-7.3-1.3-14.2,3.7-15.5,11 c-1.2,7.4,3.7,14.3,11.1,15.6c46.6,7.9,89.1,30,122.9,63.7c33.8,33.8,55.8,76.3,63.7,122.9c1.1,6.6,6.8,11.2,13.3,11.2 c0.8,0,1.5-0.1,2.3-0.2C469.556,223.306,474.556,216.306,473.256,209.006z"/></symbol><symbol id="smartphone-call" viewBox="0 0 35 35"><title>smartphone-call</title><path d="M25.302,0H9.698c-1.3,0-2.364,1.063-2.364,2.364v30.271C7.334,33.936,8.398,35,9.698,35h15.604 c1.3,0,2.364-1.062,2.364-2.364V2.364C27.666,1.063,26.602,0,25.302,0z M15.004,1.704h4.992c0.158,0,0.286,0.128,0.286,0.287 c0,0.158-0.128,0.286-0.286,0.286h-4.992c-0.158,0-0.286-0.128-0.286-0.286C14.718,1.832,14.846,1.704,15.004,1.704z M17.5,33.818 c-0.653,0-1.182-0.529-1.182-1.183s0.529-1.182,1.182-1.182s1.182,0.528,1.182,1.182S18.153,33.818,17.5,33.818z M26.021,30.625 H8.979V3.749h17.042V30.625z"/></symbol><symbol id="error" viewBox="0 0 512 512"><title>error</title><g> <g> <path d="M256,0C114.508,0,0,114.497,0,256c0,141.493,114.497,256,256,256c141.492,0,256-114.497,256-256 C512,114.507,397.503,0,256,0z M256,472c-119.384,0-216-96.607-216-216c0-119.385,96.607-216,216-216 c119.384,0,216,96.607,216,216C472,375.385,375.393,472,256,472z"/> </g> </g><g> <g> <path d="M343.586,315.302L284.284,256l59.302-59.302c7.81-7.81,7.811-20.473,0.001-28.284c-7.812-7.811-20.475-7.81-28.284,0 L256,227.716l-59.303-59.302c-7.809-7.811-20.474-7.811-28.284,0c-7.81,7.811-7.81,20.474,0.001,28.284L227.716,256 l-59.302,59.302c-7.811,7.811-7.812,20.474-0.001,28.284c7.813,7.812,20.476,7.809,28.284,0L256,284.284l59.303,59.302 c7.808,7.81,20.473,7.811,28.284,0C351.398,335.775,351.397,323.112,343.586,315.302z"/> </g> </g></symbol><symbol id="plus" viewBox="0 0 426.66667 426.66667"><title>plus</title><path d="m405.332031 192h-170.664062v-170.667969c0-11.773437-9.558594-21.332031-21.335938-21.332031-11.773437 0-21.332031 9.558594-21.332031 21.332031v170.667969h-170.667969c-11.773437 0-21.332031 9.558594-21.332031 21.332031 0 11.777344 9.558594 21.335938 21.332031 21.335938h170.667969v170.664062c0 11.777344 9.558594 21.335938 21.332031 21.335938 11.777344 0 21.335938-9.558594 21.335938-21.335938v-170.664062h170.664062c11.777344 0 21.335938-9.558594 21.335938-21.335938 0-11.773437-9.558594-21.332031-21.335938-21.332031zm0 0"/></symbol><symbol id="minus" viewBox="0 0 512 512"><title>minus</title><path d="M490.667,234.667H21.333C9.551,234.667,0,244.218,0,256c0,11.782,9.551,21.333,21.333,21.333h469.333 c11.782,0,21.333-9.551,21.333-21.333C512,244.218,502.449,234.667,490.667,234.667z"/></symbol><symbol id="camera" viewBox="0 0 420.8 420.8"><title>camera</title><path d="M406.8,96.4c-8.4-8.8-20-14-33.2-14h-66.4v-0.8c0-10-4-19.6-10.8-26c-6.8-6.8-16-10.8-26-10.8h-120 c-10.4,0-19.6,4-26.4,10.8c-6.8,6.8-10.8,16-10.8,26v0.8h-66c-13.2,0-24.8,5.2-33.2,14c-8.4,8.4-14,20.4-14,33.2v199.2 C0,342,5.2,353.6,14,362c8.4,8.4,20.4,14,33.2,14h326.4c13.2,0,24.8-5.2,33.2-14c8.4-8.4,14-20.4,14-33.2V129.6 C420.8,116.4,415.6,104.8,406.8,96.4z M400,328.8h-0.4c0,7.2-2.8,13.6-7.6,18.4s-11.2,7.6-18.4,7.6H47.2 c-7.2,0-13.6-2.8-18.4-7.6c-4.8-4.8-7.6-11.2-7.6-18.4V129.6c0-7.2,2.8-13.6,7.6-18.4s11.2-7.6,18.4-7.6h77.2 c6,0,10.8-4.8,10.8-10.8V81.2c0-4.4,1.6-8.4,4.4-11.2s6.8-4.4,11.2-4.4h119.6c4.4,0,8.4,1.6,11.2,4.4c2.8,2.8,4.4,6.8,4.4,11.2 v11.6c0,6,4.8,10.8,10.8,10.8H374c7.2,0,13.6,2.8,18.4,7.6s7.6,11.2,7.6,18.4V328.8z"/><path d="M210.4,130.8c-27.2,0-52,11.2-69.6,28.8c-18,18-28.8,42.4-28.8,69.6s11.2,52,28.8,69.6c18,18,42.4,28.8,69.6,28.8 s52-11.2,69.6-28.8c18-18,28.8-42.4,28.8-69.6s-11.2-52-28.8-69.6C262.4,142,237.6,130.8,210.4,130.8z M264.8,284 c-14,13.6-33.2,22.4-54.4,22.4S170,297.6,156,284c-14-14-22.4-33.2-22.4-54.4c0-21.2,8.8-40.4,22.4-54.4 c14-14,33.2-22.4,54.4-22.4s40.4,8.8,54.4,22.4c14,14,22.4,33.2,22.4,54.4C287.6,250.8,278.8,270,264.8,284z"/><circle cx="352.8" cy="150" r="19.6"/></symbol><symbol id="information" viewBox="0 0 512 512"><title>information</title><g> <g> <path d="M256,0C114.497,0,0,114.507,0,256c0,141.503,114.507,256,256,256c141.503,0,256-114.507,256-256 C512,114.497,397.492,0,256,0z M256,472c-119.393,0-216-96.615-216-216c0-119.393,96.615-216,216-216 c119.393,0,216,96.615,216,216C472,375.393,375.384,472,256,472z"/> </g> </g><g> <g> <path d="M256,214.33c-11.046,0-20,8.954-20,20v128.793c0,11.046,8.954,20,20,20s20-8.955,20-20.001V234.33 C276,223.284,267.046,214.33,256,214.33z"/> </g> </g><g> <g> <circle cx="256" cy="162.84" r="27"/> </g> </g></symbol><symbol id="settings" viewBox="0 0 512 512"><title>settings</title><path d="m272.066 512h-32.133c-25.989 0-47.134-21.144-47.134-47.133v-10.871c-11.049-3.53-21.784-7.986-32.097-13.323l-7.704 7.704c-18.659 18.682-48.548 18.134-66.665-.007l-22.711-22.71c-18.149-18.129-18.671-48.008.006-66.665l7.698-7.698c-5.337-10.313-9.792-21.046-13.323-32.097h-10.87c-25.988 0-47.133-21.144-47.133-47.133v-32.134c0-25.989 21.145-47.133 47.134-47.133h10.87c3.531-11.05 7.986-21.784 13.323-32.097l-7.704-7.703c-18.666-18.646-18.151-48.528.006-66.665l22.713-22.712c18.159-18.184 48.041-18.638 66.664.006l7.697 7.697c10.313-5.336 21.048-9.792 32.097-13.323v-10.87c0-25.989 21.144-47.133 47.134-47.133h32.133c25.989 0 47.133 21.144 47.133 47.133v10.871c11.049 3.53 21.784 7.986 32.097 13.323l7.704-7.704c18.659-18.682 48.548-18.134 66.665.007l22.711 22.71c18.149 18.129 18.671 48.008-.006 66.665l-7.698 7.698c5.337 10.313 9.792 21.046 13.323 32.097h10.87c25.989 0 47.134 21.144 47.134 47.133v32.134c0 25.989-21.145 47.133-47.134 47.133h-10.87c-3.531 11.05-7.986 21.784-13.323 32.097l7.704 7.704c18.666 18.646 18.151 48.528-.006 66.665l-22.713 22.712c-18.159 18.184-48.041 18.638-66.664-.006l-7.697-7.697c-10.313 5.336-21.048 9.792-32.097 13.323v10.871c0 25.987-21.144 47.131-47.134 47.131zm-106.349-102.83c14.327 8.473 29.747 14.874 45.831 19.025 6.624 1.709 11.252 7.683 11.252 14.524v22.148c0 9.447 7.687 17.133 17.134 17.133h32.133c9.447 0 17.134-7.686 17.134-17.133v-22.148c0-6.841 4.628-12.815 11.252-14.524 16.084-4.151 31.504-10.552 45.831-19.025 5.895-3.486 13.4-2.538 18.243 2.305l15.688 15.689c6.764 6.772 17.626 6.615 24.224.007l22.727-22.726c6.582-6.574 6.802-17.438.006-24.225l-15.695-15.695c-4.842-4.842-5.79-12.348-2.305-18.242 8.473-14.326 14.873-29.746 19.024-45.831 1.71-6.624 7.684-11.251 14.524-11.251h22.147c9.447 0 17.134-7.686 17.134-17.133v-32.134c0-9.447-7.687-17.133-17.134-17.133h-22.147c-6.841 0-12.814-4.628-14.524-11.251-4.151-16.085-10.552-31.505-19.024-45.831-3.485-5.894-2.537-13.4 2.305-18.242l15.689-15.689c6.782-6.774 6.605-17.634.006-24.225l-22.725-22.725c-6.587-6.596-17.451-6.789-24.225-.006l-15.694 15.695c-4.842 4.843-12.35 5.791-18.243 2.305-14.327-8.473-29.747-14.874-45.831-19.025-6.624-1.709-11.252-7.683-11.252-14.524v-22.15c0-9.447-7.687-17.133-17.134-17.133h-32.133c-9.447 0-17.134 7.686-17.134 17.133v22.148c0 6.841-4.628 12.815-11.252 14.524-16.084 4.151-31.504 10.552-45.831 19.025-5.896 3.485-13.401 2.537-18.243-2.305l-15.688-15.689c-6.764-6.772-17.627-6.615-24.224-.007l-22.727 22.726c-6.582 6.574-6.802 17.437-.006 24.225l15.695 15.695c4.842 4.842 5.79 12.348 2.305 18.242-8.473 14.326-14.873 29.746-19.024 45.831-1.71 6.624-7.684 11.251-14.524 11.251h-22.148c-9.447.001-17.134 7.687-17.134 17.134v32.134c0 9.447 7.687 17.133 17.134 17.133h22.147c6.841 0 12.814 4.628 14.524 11.251 4.151 16.085 10.552 31.505 19.024 45.831 3.485 5.894 2.537 13.4-2.305 18.242l-15.689 15.689c-6.782 6.774-6.605 17.634-.006 24.225l22.725 22.725c6.587 6.596 17.451 6.789 24.225.006l15.694-15.695c3.568-3.567 10.991-6.594 18.244-2.304z"/><path d="m256 367.4c-61.427 0-111.4-49.974-111.4-111.4s49.973-111.4 111.4-111.4 111.4 49.974 111.4 111.4-49.973 111.4-111.4 111.4zm0-192.8c-44.885 0-81.4 36.516-81.4 81.4s36.516 81.4 81.4 81.4 81.4-36.516 81.4-81.4-36.515-81.4-81.4-81.4z"/></symbol><symbol id="clipboards" viewBox="0 0 415.998 415.998"><title>clipboards</title><g> <g> <rect x="111.999" y="176" width="192" height="16"/> </g> </g><g> <g> <rect x="111.999" y="224" width="192" height="16"/> </g> </g><g> <g> <rect x="111.999" y="272" width="192" height="16"/> </g> </g><g> <g> <rect x="111.999" y="320" width="96" height="16"/> </g> </g><g> <g> <circle cx="208.239" cy="48" r="12"/> </g> </g><g> <g> <path d="M367.998,95.999c0-17.673-14.326-32-31.999-32h-44.424c-5.926-6.583-13.538-11.62-22.284-14.136 c-7.367-2.118-13.037-7.788-15.156-15.155C248.37,14.664,229.897,0,207.998,0c-21.898,0-40.37,14.663-46.134,34.706 c-2.122,7.376-7.806,13.039-15.182,15.165c-8.736,2.518-16.341,7.55-22.262,14.128H79.999c-17.674,0-32,14.327-32,32v287.999 c0,17.673,14.326,32,32,32c73.466,0,163.758,0,256,0c17.674,0,32-14.327,32-32C367.999,293.119,367.998,206.096,367.998,95.999z M128,95.741c0.11-14.066,9.614-26.606,23.113-30.496c12.71-3.662,22.477-13.426,26.127-26.116 C181.157,25.51,193.805,16,207.998,16c14.194,0,26.842,9.51,30.758,23.13c3.652,12.698,13.413,22.459,26.111,26.11 c13.618,3.917,23.13,16.566,23.13,30.758v16H128V95.741z M335.999,399.998c-85.455,0-170.77,0-256,0c-8.823,0-16-7.178-16-16 V95.999c0-8.822,7.177-16,16-16h34.742c-1.73,4.892-2.698,10.143-2.74,15.617v32.383h191.998v-32c0-5.615-0.992-10.991-2.764-16 h34.764c8.822,0,15.999,7.178,15.999,16c0,45.743-0.001,260.254,0.002,287.999C351.999,392.82,344.822,399.998,335.999,399.998z"/> </g> </g></symbol><symbol id="upload" viewBox="0 0 512 512"><title>upload</title><g> <g> <path d="M472,312.642v139c0,11.028-8.972,20-20,20H60c-11.028,0-20-8.972-20-20v-139H0v139c0,33.084,26.916,60,60,60h392 c33.084,0,60-26.916,60-60v-139H472z"/> </g> </g><g> <g> <polygon points="256,0.358 131.716,124.642 160,152.926 236,76.926 236,388.642 276,388.642 276,76.926 352,152.926 380.284,124.642 "/> </g> </g></symbol><symbol id="undo-arrow" viewBox="0 0 438.536 438.536"><title>undo-arrow</title><path d="M421.125,134.191c-11.608-27.03-27.217-50.347-46.819-69.949C354.7,44.639,331.384,29.033,304.353,17.42 C277.325,5.807,248.969,0.005,219.275,0.005c-27.978,0-55.052,5.277-81.227,15.843C111.879,26.412,88.61,41.305,68.243,60.531 l-37.12-36.835c-5.711-5.901-12.275-7.232-19.701-3.999C3.807,22.937,0,28.554,0,36.547v127.907c0,4.948,1.809,9.231,5.426,12.847 c3.619,3.617,7.902,5.426,12.85,5.426h127.907c7.996,0,13.61-3.807,16.846-11.421c3.234-7.423,1.903-13.988-3.999-19.701 l-39.115-39.398c13.328-12.563,28.553-22.222,45.683-28.98c17.131-6.757,35.021-10.138,53.675-10.138 c19.793,0,38.687,3.858,56.674,11.563c17.99,7.71,33.544,18.131,46.679,31.265c13.134,13.131,23.555,28.69,31.265,46.679 c7.703,17.987,11.56,36.875,11.56,56.674c0,19.798-3.856,38.686-11.56,56.672c-7.71,17.987-18.131,33.544-31.265,46.679 c-13.135,13.134-28.695,23.558-46.679,31.265c-17.987,7.707-36.881,11.561-56.674,11.561c-22.651,0-44.064-4.949-64.241-14.843 c-20.174-9.894-37.209-23.883-51.104-41.973c-1.331-1.902-3.521-3.046-6.567-3.429c-2.856,0-5.236,0.855-7.139,2.566 l-39.114,39.402c-1.521,1.53-2.33,3.478-2.426,5.853c-0.094,2.385,0.527,4.524,1.858,6.427 c20.749,25.125,45.871,44.587,75.373,58.382c29.502,13.798,60.625,20.701,93.362,20.701c29.694,0,58.05-5.808,85.078-17.416 c27.031-11.607,50.34-27.22,69.949-46.821c19.605-19.609,35.211-42.921,46.822-69.949s17.411-55.392,17.411-85.08 C438.536,189.569,432.732,161.22,421.125,134.191z"/></symbol><symbol id="redo" viewBox="0 0 512 512"><title>redo</title><path d="m502.121094 1.214844c-5.972656-2.453125-12.863282-1.109375-17.429688 3.476562l-57.597656 57.601563c-47.488281-39.210938-108.417969-62.292969-171.09375-62.292969-141.164062 0-256 114.835938-256 256s114.835938 256 256 256c68.332031 0 132.609375-26.644531 180.96875-75.03125 8.34375-8.339844 8.34375-21.820312 0-30.164062-8.339844-8.339844-21.820312-8.339844-30.164062 0-40.296876 40.320312-93.867188 62.527343-150.804688 62.527343-117.632812 0-213.332031-95.699219-213.332031-213.332031s95.699219-213.332031 213.332031-213.332031c51.414062 0 101.332031 18.496093 140.777344 49.917969l-50.75 50.773437c-4.585938 4.585937-5.929688 11.457031-3.476563 17.429687 2.472657 5.972657 8.296875 9.878907 14.78125 9.878907h138.667969c8.832031 0 16-7.167969 16-16v-138.667969c0-6.484375-3.902344-12.308594-9.878906-14.785156zm0 0"/></symbol><symbol id="undo" viewBox="0 0 512 512.00241"><title>undo</title><path d="m256 .00390625c-62.675781 0-123.605469 23.08203175-171.09375 62.26953175l-57.597656-57.597657c-4.585938-4.566406-11.457032-5.933593-17.429688-3.457031-5.972656 2.472656-9.878906 8.296875-9.878906 14.785156v138.664063c0 8.832031 7.167969 16 16 16h138.667969c6.484375 0 12.308593-3.902344 14.785156-9.875 2.472656-5.972657 1.109375-12.84375-3.480469-17.429688l-50.75-50.773437c39.445313-31.425782 89.363282-49.921875 140.777344-49.921875 117.632812 0 213.335938 95.703125 213.335938 213.335937 0 117.628906-95.703126 213.332032-213.335938 213.332032-56.9375 0-110.503906-22.207032-150.804688-62.527344-8.339843-8.34375-21.824218-8.34375-30.164062 0-8.34375 8.339844-8.34375 21.824218 0 30.164062 48.363281 48.382813 112.640625 75.03125 180.96875 75.03125 141.164062 0 256-114.839844 256-256 0-141.164062-114.835938-255.99999975-256-255.99999975zm0 0"/></symbol><symbol id="folder" viewBox="0 0 408 408"><title>folder</title><path d="M372,88.661H206.32l-33-39.24c-0.985-1.184-2.461-1.848-4-1.8H36c-19.956,0.198-36.023,16.443-36,36.4v240 c-0.001,19.941,16.06,36.163,36,36.36h336c19.94-0.197,36.001-16.419,36-36.36v-199C408.001,105.08,391.94,88.859,372,88.661z"/></symbol><symbol id="floppy-disk" viewBox="0 0 512.007 512.007"><title>floppy-disk</title><path d="m511.927 126.537c-.279-2.828-1.38-5.666-3.315-8.027-.747-.913 6.893 6.786-114.006-114.113-2.882-2.882-6.794-4.395-10.612-4.394-9.096 0-329.933 0-338.995 0-24.813 0-45 20.187-45 45v422c0 24.813 20.187 45 45 45h422c24.813 0 45-20.187 45-45 .001-364.186.041-339.316-.072-340.466zm-166.927-96.534v98c0 8.271-6.729 15-15 15h-19v-113zm-64 0v113h-139c-8.271 0-15-6.729-15-15v-98zm64 291h-218v-19c0-8.271 6.729-15 15-15h188c8.271 0 15 6.729 15 15zm-218 161v-131h218v131zm355-15c0 8.271-6.729 15-15 15h-92c0-19.555 0-157.708 0-180 0-24.813-20.187-45-45-45h-188c-24.813 0-45 20.187-45 45v180h-52c-8.271 0-15-6.729-15-15v-422c0-8.271 6.729-15 15-15h52v98c0 24.813 20.187 45 45 45h188c24.813 0 45-20.187 45-45v-98h2.787l104.213 104.214z"/></symbol></svg>